<svg id="Capa_1" data-name="Capa 1" xmlns="http://www.w3.org/2000/svg" viewBox="0 0 792 236.61"><defs><style>.cls-1{fill:#fff;}</style></defs><title>clicar_blanco</title><path class="cls-1" d="M752.09,181a52.75,52.75,0,0,0,22.62-17.56q8.4-11.52,8.4-29v-.43q0-21.75-13.36-35.11-7.54-7.55-19.6-11.85t-29.51-4.3h-71.3V233.6h41.79V187.93h18.53L740,233.6h48Zm-10.77-43.73a16,16,0,0,1-5.92,13q-5.92,4.84-16.48,4.85H691.13v-36.4H718.7q10.35,0,16.48,4.52t6.14,13.57Z"/><path class="cls-1" d="M575.16,81.74H534.88l-64,151.86h43.73l10.77-27.14h58.37l10.77,27.14h44.8Zm-37.48,92.19,17-42.65,16.8,42.65Z"/><path class="cls-1" d="M444.34,180.18a89.79,89.79,0,0,1-7,7.43,48,48,0,0,1-7.54,5.81,32.13,32.13,0,0,1-8.84,3.77,41.35,41.35,0,0,1-10.66,1.3,33.48,33.48,0,0,1-14.54-3.13,34.5,34.5,0,0,1-11.3-8.51A39.39,39.39,0,0,1,377,174a46.27,46.27,0,0,1-2.69-15.84v-.43a44.67,44.67,0,0,1,2.69-15.5,41.07,41.07,0,0,1,7.44-12.82,34.14,34.14,0,0,1,11.3-8.62,33.47,33.47,0,0,1,14.54-3.12q11,0,18.74,4.85a57.92,57.92,0,0,1,14.22,12.81L474.71,111a79.48,79.48,0,0,0-11.31-12.6,72.18,72.18,0,0,0-14.22-9.91c-1.74-.93-3.56-1.76-5.43-2.55C433.53,81,407.06,68.61,364,52.66,261.33,14.56,187.43-5.75,116.8,4.75,13,20.19,3.94,101.76,3.94,101.76S16.4,84.92,31,77.35c18.89-9.82,28.11-10,28.11-10S76,18,233.55,54.22c56.62,13,102.27,26.36,135.06,37a74.61,74.61,0,0,0-31.22,36.3,79.49,79.49,0,0,0-5.92,30.69v.44a78.27,78.27,0,0,0,22.72,55.89,74.12,74.12,0,0,0,24.67,16.27,79.53,79.53,0,0,0,30.37,5.81,89.13,89.13,0,0,0,22.4-2.58,76.29,76.29,0,0,0,18-7.11,67.84,67.84,0,0,0,14.44-10.77,113.25,113.25,0,0,0,11.73-13.57Z"/><rect class="cls-1" x="278.18" y="82.82" width="41.79" height="150.78"/><polygon class="cls-1" points="155.32 233.6 270.13 233.6 270.13 196.98 197.11 196.98 197.11 82.82 155.32 82.82 155.32 233.6"/><path class="cls-1" d="M104.19,234a76.37,76.37,0,0,0,18-7.11,67.78,67.78,0,0,0,14.43-10.77,112.43,112.43,0,0,0,11.74-13.57l-31.45-22.4a89.79,89.79,0,0,1-7,7.43,47.57,47.57,0,0,1-7.54,5.81,32.06,32.06,0,0,1-8.83,3.77,41.35,41.35,0,0,1-10.66,1.3,33.45,33.45,0,0,1-14.54-3.13A34.64,34.64,0,0,1,57,186.85,39.55,39.55,0,0,1,49.59,174,46,46,0,0,1,46.9,158.2v-.43a44.44,44.44,0,0,1,2.69-15.5A41.24,41.24,0,0,1,57,129.45a34.28,34.28,0,0,1,11.31-8.62,33.44,33.44,0,0,1,14.54-3.12q11,0,18.74,4.85a57.92,57.92,0,0,1,14.22,12.81L147.28,111A79.48,79.48,0,0,0,136,98.43a71.29,71.29,0,0,0-31.56-16.37A90.93,90.93,0,0,0,83.3,79.8a81.3,81.3,0,0,0-31.66,6,77.05,77.05,0,0,0-25.1,16.69,76.21,76.21,0,0,0-16.59,25A79.49,79.49,0,0,0,4,158.2v.44a78.33,78.33,0,0,0,22.73,55.89A74.08,74.08,0,0,0,51.42,230.8a79.56,79.56,0,0,0,30.37,5.81,89,89,0,0,0,22.4-2.58"/></svg>