<svg id="Capa_1" data-name="Capa 1" xmlns="http://www.w3.org/2000/svg" viewBox="0 0 792 331.99"><defs><style>.cls-1{fill:#58585c;}.cls-2{fill:#52ae32;}</style></defs><title>Mesa de trabajo 1</title><path class="cls-1" d="M788.06,296.91c0-11.35-6.11-20.47-16.74-20.47-9.93,0-17.22,9-17.22,20.17,0,12,8,20.17,17.92,20.17,6.8,0,11.18-2.92,14.79-7.25l-3.33-3.21c-2.92,3.29-6.39,5.45-11.32,5.45-6.33,0-11.88-4.7-12.65-12.84H788C788.06,298,788.06,297.43,788.06,296.91Zm-28.55-2.62c.77-7.46,5.49-13,11.67-13,7.09,0,10.84,6,11.46,13Z"/><path class="cls-1" d="M737.91,265.61h-5.35v11.66h-5v5.07h5v23.31c0,7.84,4.38,10.9,10.14,10.9a12.64,12.64,0,0,0,6.46-1.64V310a10.59,10.59,0,0,1-5.21,1.34c-3.61,0-6-1.71-6-6.42V282.34H749.3v-5.07H737.91Z"/><path class="cls-1" d="M711.31,293.85c-4.8-1.57-9.24-3-9.24-6.65v-.15c0-3.21,2.71-5.6,6.95-5.6a19.36,19.36,0,0,1,10.62,3.73l2.43-4.33a23.37,23.37,0,0,0-12.92-4.26c-7.08,0-12.22,4.41-12.22,11.06v.15c0,7.09,6.25,9.18,11.88,10.9,4.72,1.42,9,2.92,9,6.8v.15c0,3.73-3.13,6.12-7.44,6.12s-8.54-1.79-12.43-4.93L695.19,311a23.67,23.67,0,0,0,14.87,5.68c7.15,0,12.78-4.26,12.78-11.58v-.15C722.84,298,716.87,295.64,711.31,293.85Z"/><rect class="cls-1" x="681.79" y="277.27" width="5.35" height="38.61"/><rect class="cls-1" x="681.44" y="262.48" width="6.11" height="6.35"/><path class="cls-1" d="M665.4,284.66c-2.78-4.33-7.09-8.22-13.76-8.22-8.61,0-17.16,7.47-17.16,20.1v.15c0,12.69,8.55,20,17.16,20,6.6,0,10.84-4,13.76-8.59v7.77h5.34V261.36H665.4Zm.2,11.95c0,8.89-6.32,14.94-13,14.94-6.81,0-12.65-5.83-12.65-14.94v-.15c0-9.33,5.7-14.86,12.65-14.86,6.66,0,13,6,13,14.86Z"/><path class="cls-1" d="M612.81,276.44c-6.18,0-9.93,3.36-12.29,7.55v-6.72h-5.35v38.61h5.35V293.77c0-7.24,4.58-12.1,10.76-12.1,6.33,0,9.94,4.48,9.94,11.65v22.56h5.35v-24C626.57,282.72,621.49,276.44,612.81,276.44Z"/><path class="cls-1" d="M570.44,276.44c-9.93,0-17.22,9-17.22,20.17,0,12,8,20.17,17.92,20.17,6.8,0,11.18-2.92,14.79-7.25l-3.33-3.21c-2.92,3.29-6.39,5.45-11.33,5.45-6.32,0-11.87-4.7-12.64-12.84h28.48c.07-.9.07-1.5.07-2C587.18,285.56,581.07,276.44,570.44,276.44Zm-11.81,17.85c.77-7.46,5.49-13,11.67-13,7.09,0,10.84,6,11.46,13Z"/><polygon class="cls-1" points="532.59 309.31 520.5 277.27 514.6 277.27 530.15 316.18 534.88 316.18 550.51 277.27 544.74 277.27 532.59 309.31"/><path class="cls-1" d="M471.74,276.44c-10.84,0-18.76,9.27-18.76,20.17v.15c0,10.91,7.85,20,18.62,20s18.82-9.27,18.82-20.17v-.15C490.42,285.56,482.5,276.44,471.74,276.44Zm13.19,20.32c0,8.14-5.41,14.86-13.19,14.86-7.57,0-13.27-6.72-13.27-15v-.15c0-8.14,5.35-14.94,13.13-14.94,7.57,0,13.33,6.8,13.33,15.09Z"/><rect class="cls-1" x="438.81" y="261.36" width="5.35" height="54.52"/><path class="cls-1" d="M402.62,315.88h2.51c.27,3.21-1.19,5.15-4.66,6.5l.83,2.61c5.29-1.27,7.72-4.18,7.72-10.23V308h-6.4Z"/><path class="cls-1" d="M379.22,276.44c-9.94,0-17.23,9-17.23,20.17,0,12,8.06,20.17,17.92,20.17,6.81,0,11.18-2.92,14.8-7.25l-3.34-3.21c-2.92,3.29-6.39,5.45-11.32,5.45-6.32,0-11.88-4.7-12.64-12.84h28.48c.07-.9.07-1.5.07-2C396,285.56,389.84,276.44,379.22,276.44Zm-11.81,17.85c.76-7.46,5.49-13,11.67-13,7.08,0,10.83,6,11.46,13Z"/><path class="cls-1" d="M345.81,265.61h-5.35v11.66h-5v5.07h5v23.31c0,7.84,4.37,10.9,10.14,10.9a12.67,12.67,0,0,0,6.46-1.64V310a10.62,10.62,0,0,1-5.21,1.34c-3.61,0-6-1.71-6-6.42V282.34H357.2v-5.07H345.81Z"/><path class="cls-1" d="M319.2,293.85c-4.79-1.57-9.23-3-9.23-6.65v-.15c0-3.21,2.7-5.6,6.94-5.6a19.39,19.39,0,0,1,10.63,3.73l2.43-4.33a23.37,23.37,0,0,0-12.92-4.26c-7.08,0-12.22,4.41-12.22,11.06v.15c0,7.09,6.24,9.18,11.87,10.9,4.73,1.42,9,2.92,9,6.8v.15c0,3.73-3.12,6.12-7.43,6.12s-8.54-1.79-12.43-4.93L303.09,311A23.64,23.64,0,0,0,318,316.63c7.16,0,12.78-4.26,12.78-11.58v-.15C330.73,298,324.76,295.64,319.2,293.85Z"/><path class="cls-1" d="M280.79,276.67A27.68,27.68,0,0,0,267.73,280l1.6,4.7a23.59,23.59,0,0,1,10.9-2.76c6.74,0,10.63,3.58,10.63,10.45v1.2a35.16,35.16,0,0,0-11-1.65c-9.1,0-15.35,4.34-15.35,12.63v.15c0,7.91,6.67,12,13.4,12a15.4,15.4,0,0,0,12.92-6.57v5.75h5.28v-23.6c0-4.93-1.25-8.67-3.75-11.36S285.86,276.67,280.79,276.67Zm10.14,25c0,6.12-5.35,10.38-11.95,10.38-4.86,0-9-2.84-9-7.69v-.15c0-4.63,3.81-7.77,10.48-7.77a34.59,34.59,0,0,1,10.49,1.64Z"/><path class="cls-1" d="M247.17,293.85c-4.79-1.57-9.24-3-9.24-6.65v-.15c0-3.21,2.71-5.6,6.95-5.6a19.42,19.42,0,0,1,10.63,3.73l2.43-4.33A23.4,23.4,0,0,0,245,276.59c-7.09,0-12.23,4.41-12.23,11.06v.15c0,7.09,6.26,9.18,11.88,10.9,4.72,1.42,9,2.92,9,6.8v.15c0,3.73-3.12,6.12-7.43,6.12s-8.54-1.79-12.43-4.93L231.06,311a23.64,23.64,0,0,0,14.86,5.68c7.16,0,12.78-4.26,12.78-11.58v-.15C258.7,298,252.73,295.64,247.17,293.85Z"/><path class="cls-1" d="M210.29,276.44c-6.18,0-9.93,3.36-12.3,7.55v-6.72h-5.34v38.61H198V293.77c0-7.24,4.59-12.1,10.77-12.1s9.93,4.48,9.93,11.65v22.56H224v-24C224,282.72,219,276.44,210.29,276.44Z"/><path class="cls-1" d="M167.92,276.44c-9.94,0-17.23,9-17.23,20.17,0,12,8.06,20.17,17.92,20.17,6.81,0,11.19-2.92,14.8-7.25l-3.34-3.21c-2.92,3.29-6.39,5.45-11.32,5.45-6.32,0-11.88-4.7-12.64-12.84h28.48c.07-.9.07-1.5.07-2C184.66,285.56,178.54,276.44,167.92,276.44Zm-11.81,17.85c.76-7.46,5.48-13,11.67-13,7.08,0,10.83,6,11.46,13Z"/><path class="cls-1" d="M127.28,276.44c-6.6,0-10.83,4-13.75,8.59v-7.76h-5.35v50.56h5.35V308.49c2.78,4.33,7.08,8.21,13.75,8.21,8.69,0,17.16-7.47,17.16-20.09v-.15C144.44,283.76,135.9,276.44,127.28,276.44ZM139,296.69c0,9.33-5.69,14.86-12.64,14.86-6.67,0-13-6-13-14.94v-.15c0-8.81,6.32-14.86,13-14.86S139,287.42,139,296.54Z"/><path class="cls-1" d="M61.78,276.44C51,276.44,43,285.71,43,296.61v.15c0,10.91,7.85,20,18.61,20s18.83-9.27,18.83-20.17v-.15C80.47,285.56,72.55,276.44,61.78,276.44ZM75,296.76c0,8.14-5.42,14.86-13.2,14.86-7.57,0-13.27-6.72-13.27-15v-.15c0-8.14,5.35-14.94,13.13-14.94,7.57,0,13.34,6.8,13.34,15.09Z"/><polygon class="cls-1" points="10.73 263.6 5.24 263.6 5.24 315.88 38.1 315.88 38.1 310.43 10.73 310.43 10.73 263.6"/><path class="cls-1" d="M752.09,181a52.75,52.75,0,0,0,22.62-17.56q8.4-11.52,8.4-29v-.43q0-21.75-13.36-35.11-7.54-7.55-19.6-11.85t-29.51-4.3h-71.3V233.6h41.79V187.93h18.53L740,233.6h48Zm-10.77-43.73a16,16,0,0,1-5.92,13q-5.92,4.84-16.48,4.85H691.13v-36.4H718.7q10.35,0,16.48,4.52t6.14,13.57Z"/><path class="cls-1" d="M575.16,81.74H534.88l-64,151.86h43.73l10.77-27.14h58.37l10.77,27.14h44.8Zm-37.48,92.19,17-42.65,16.8,42.65Z"/><path class="cls-2" d="M444.34,180.18a89.79,89.79,0,0,1-7,7.43,48,48,0,0,1-7.54,5.81,32.13,32.13,0,0,1-8.84,3.77,41.35,41.35,0,0,1-10.66,1.3,33.48,33.48,0,0,1-14.54-3.13,34.5,34.5,0,0,1-11.3-8.51A39.39,39.39,0,0,1,377,174a46.27,46.27,0,0,1-2.69-15.84v-.43a44.67,44.67,0,0,1,2.69-15.5,41.07,41.07,0,0,1,7.44-12.82,34.14,34.14,0,0,1,11.3-8.62,33.47,33.47,0,0,1,14.54-3.12q11,0,18.74,4.85a57.92,57.92,0,0,1,14.22,12.81L474.71,111a79.48,79.48,0,0,0-11.31-12.6,72.18,72.18,0,0,0-14.22-9.91c-1.74-.93-3.56-1.76-5.43-2.55C433.53,81,407.06,68.61,364,52.66,261.33,14.56,187.43-5.75,116.8,4.75,13,20.19,3.94,101.76,3.94,101.76S16.4,84.92,31,77.35c18.89-9.82,28.11-10,28.11-10S76,18,233.55,54.22c56.62,13,102.27,26.36,135.06,37a74.61,74.61,0,0,0-31.22,36.3,79.49,79.49,0,0,0-5.92,30.69v.44a78.27,78.27,0,0,0,22.72,55.89,74.12,74.12,0,0,0,24.67,16.27,79.53,79.53,0,0,0,30.37,5.81,89.13,89.13,0,0,0,22.4-2.58,76.29,76.29,0,0,0,18-7.11,67.84,67.84,0,0,0,14.44-10.77,113.25,113.25,0,0,0,11.73-13.57Z"/><rect class="cls-1" x="278.18" y="82.82" width="41.79" height="150.78"/><polygon class="cls-1" points="155.32 233.6 270.13 233.6 270.13 196.98 197.11 196.98 197.11 82.82 155.32 82.82 155.32 233.6"/><path class="cls-2" d="M104.19,234a76.37,76.37,0,0,0,18-7.11,67.78,67.78,0,0,0,14.43-10.77,112.43,112.43,0,0,0,11.74-13.57l-31.45-22.4a89.79,89.79,0,0,1-7,7.43,47.57,47.57,0,0,1-7.54,5.81,32.06,32.06,0,0,1-8.83,3.77,41.35,41.35,0,0,1-10.66,1.3,33.45,33.45,0,0,1-14.54-3.13A34.64,34.64,0,0,1,57,186.85,39.55,39.55,0,0,1,49.59,174,46,46,0,0,1,46.9,158.2v-.43a44.44,44.44,0,0,1,2.69-15.5A41.24,41.24,0,0,1,57,129.45a34.28,34.28,0,0,1,11.31-8.62,33.44,33.44,0,0,1,14.54-3.12q11,0,18.74,4.85a57.92,57.92,0,0,1,14.22,12.81L147.28,111A79.48,79.48,0,0,0,136,98.43a71.29,71.29,0,0,0-31.56-16.37A90.93,90.93,0,0,0,83.3,79.8a81.3,81.3,0,0,0-31.66,6,77.05,77.05,0,0,0-25.1,16.69,76.21,76.21,0,0,0-16.59,25A79.49,79.49,0,0,0,4,158.2v.44a78.33,78.33,0,0,0,22.73,55.89A74.08,74.08,0,0,0,51.42,230.8a79.56,79.56,0,0,0,30.37,5.81,89,89,0,0,0,22.4-2.58"/></svg>